<svg xmlns="http://www.w3.org/2000/svg" width="21" height="18" viewBox="0 0 21 18">
    <path fill="#FFF" fill-rule="evenodd" stroke="#FFF" d="M19.982 5.984c-.003.018.013.034.008.053l-2.383 7.42c.005.028.017.051.017.078 0 .271-.218.485-.5.528a.572.572 0 0 1-.09.017H8.72c-.009 0-.015-.003-.024-.003-.29.006-.558-.145-.637-.392l-2.153-7.42a.518.518 0 0 1-.155-.36c0-.035.014-.066.021-.1L4.694 2.09h-3.1C1.265 2.09 1 1.846 1 1.545c0-.3.265-.545.594-.545h3.562c.008 0 .014.004.023.004.29-.005.559.145.637.391L6.967 5.36h12.439l.007.001a.567.567 0 0 1 .179.011c.017.004.023.024.04.03.095.035.171.1.235.173.029.035.055.06.074.1.035.07.059.147.059.23 0 .028-.013.051-.018.079zm-12.7.466l1.898 6.54h7.4l2.099-6.54H7.283zm2.03 8.72c.656 0 1.188.488 1.188 1.09 0 .602-.532 1.09-1.188 1.09-.655 0-1.187-.488-1.187-1.09 0-.602.532-1.09 1.187-1.09zm5.938 0c.655 0 1.187.488 1.187 1.09 0 .602-.532 1.09-1.187 1.09-.656 0-1.188-.488-1.188-1.09 0-.602.532-1.09 1.188-1.09z"/>
</svg>
