<svg xmlns="http://www.w3.org/2000/svg" width="21" height="19" viewBox="0 0 21 19">
    <path fill="#FFF" fill-rule="nonzero" stroke="#FFF" d="M18.465 2.552a5.213 5.213 0 0 0-3.718-1.54 5.226 5.226 0 0 0-3.721 1.544l-.52.52-.528-.528A5.24 5.24 0 0 0 6.253 1a5.22 5.22 0 0 0-3.714 1.54A5.216 5.216 0 0 0 1 6.266a5.23 5.23 0 0 0 1.547 3.72l7.564 7.573a.543.543 0 0 0 .765.004l7.581-7.56A5.236 5.236 0 0 0 20 6.278a5.212 5.212 0 0 0-1.535-3.726zm-.773 6.681l-7.198 7.177-7.182-7.19a4.153 4.153 0 0 1-1.224-2.954c0-1.117.43-2.166 1.22-2.952a4.14 4.14 0 0 1 2.945-1.221c1.115 0 2.167.435 2.956 1.225l.91.911a.542.542 0 0 0 .77 0l.902-.903a4.152 4.152 0 0 1 2.952-1.225c1.112 0 2.16.435 2.949 1.221.79.79 1.22 1.839 1.22 2.956a4.132 4.132 0 0 1-1.22 2.955z"/>
</svg>
