<svg xmlns="http://www.w3.org/2000/svg" width="238" height="74" viewBox="0 0 238 74">
    <g fill="#FFF" fill-rule="nonzero">
        <path d="M185.447 49.426l-4.59 4.003-4.59-4.003-1.41 1.232 6 5.243 6-5.243zM.939 36.382c0-9.998 4.068-19.038 10.631-25.588C18.133 4.244 27.191.184 37.208.184c10.018 0 19.075 4.06 25.638 10.61 6.563 6.55 10.632 15.59 10.632 25.588 0 9.997-4.069 19.037-10.632 25.587-6.563 6.55-15.62 10.61-25.638 10.61-10.017 0-19.075-4.06-25.638-10.61C5.007 55.419.94 46.379.94 36.382zm13.356-22.868c-5.872 5.86-9.48 13.943-9.48 22.868 0 8.925 3.608 17.007 9.48 22.867 5.872 5.86 13.97 9.461 22.875 9.461 8.943 0 17.04-3.6 22.913-9.46 5.872-5.861 9.48-13.943 9.48-22.868 0-8.925-3.646-17.007-9.48-22.868A32.315 32.315 0 0 0 37.17 4.053c-8.943 0-17.041 3.6-22.875 9.461z"/>
        <path d="M30.988 57.24c-9.058-2.797-15.66-11.262-15.66-21.221 0-9.96 6.602-18.425 15.66-21.22v42.44zm0-46.655c-11.36 2.91-19.766 13.215-19.766 25.472 0 12.219 8.405 22.561 19.766 25.472 1.343.345 2.686.575 4.106.69V9.895a24.85 24.85 0 0 0-4.106.69zM43.893 10.585a24.192 24.192 0 0 0-4.107-.69v52.362a24.85 24.85 0 0 0 4.107-.69v-23.71h7.944v-4.06h-7.944V14.913c2.993.881 8.367 3.6 12.742 10.189h4.606c-1.42-3.37-6.679-11.76-17.348-14.44v-.077zM105.287 55.525c-.422 0-1.19.038-1.42.383-.268.421-.307 1.149-.307 1.609V68.51c0 .46.039 1.226.307 1.609.23.344 1.037.383 1.42.383h3.224c.384 0 1.19-.039 1.42-.383.27-.383.308-1.15.308-1.61V57.518c0-.46-.039-1.188-.308-1.61-.23-.344-1.036-.382-1.42-.382h-3.224zm-5.68 1.226c0-1.035.154-2.337.998-3.103.806-.766 2.188-.92 3.3-.92h5.95c1.113 0 2.494.154 3.339.92.844.766.998 2.068.998 3.103v12.602c0 1.034-.154 2.336-.998 3.102-.845.766-2.226.92-3.34.92h-5.948c-1.113 0-2.495-.154-3.301-.92-.844-.766-.998-2.068-.998-3.102V56.75zM90.992 52.724h3.915c.345 0 .844.038 1.075.306.23.268.268.69.268.996v1.494h-5.258v16.51c0 .344-.038.765-.307 1.033-.269.268-.73.307-1.113.307H87.04V49.162c0-1.035.153-2.337.998-3.065.844-.766 2.226-.92 3.339-.92h5.105c.345 0 .844.04 1.074.307.23.268.269.69.269 1.035v1.493h-5.105c-.307 0-.652 0-.998.077-.153.038-.345.115-.46.23-.115.153-.192.383-.23.536-.039.383-.039.766-.039 1.15V52.8v-.076zM207.672 30.034v1.494c0 .306-.038.766-.268.996-.23.268-.73.306-1.075.306h-6.448c-1.113 0-2.495-.153-3.3-.919-.845-.766-.999-2.068-.999-3.103V16.206c0-1.034.154-2.336.998-3.102.806-.766 2.188-.92 3.301-.92h4.682c1.113 0 2.495.154 3.301.92.844.766.998 2.068.998 3.102v4.444c0 1.034-.154 2.336-.998 3.102s-2.188.92-3.3.92h-2.572c-.346 0-.844-.039-1.075-.307-.23-.268-.268-.69-.268-1.034v-1.494h2.763c.384 0 1.19-.038 1.42-.383.269-.421.307-1.15.307-1.609V16.82c0-.383-.038-1.187-.345-1.494-.307-.306-1.113-.344-1.536-.344h-1.842c-.384 0-1.305.038-1.573.344-.307.345-.307 1.226-.307 1.647v10.994c0 .46.038 1.225.307 1.609.23.344 1.036.383 1.42.383h6.41v.076zM150.405 7.082v24.59c0 .346-.038.767-.307 1.035-.268.268-.729.307-1.113.307h-2.533v-20.8l3.263-1.149-3.263-.574V8.384c0-.345.039-.766.307-1.034.269-.23.73-.307 1.113-.307h2.533v.039zM159.546 47.626v24.591c0 .345-.039.766-.307 1.034-.269.268-.73.307-1.113.307h-2.533v-20.8l3.224-1.149-3.224-.574v-2.107c0-.345.038-.766.307-1.034.268-.23.729-.307 1.113-.307h2.533v.039zM134.448 23.867c-.614 0-1.267-.038-1.88-.153-.461-.115-.922-.306-1.267-.651-.346-.345-.5-.766-.614-1.188a9.112 9.112 0 0 1-.154-1.762v-3.907c0-1.034.154-2.336.998-3.102.806-.766 2.226-.92 3.34-.92h5.68c.345 0 .844.039 1.074.307.23.268.269.69.269.996v1.494h-5.91c-.385 0-1.19.038-1.421.383-.269.421-.307 1.149-.307 1.608v2.107c0 .383 0 .766.077 1.15.038.19.077.42.192.574.115.115.307.191.46.23.307.076.653.076.998.076h2.418c.614 0 1.267.039 1.88.153.461.115.922.307 1.229.652.345.344.537.766.614 1.187.115.575.153 1.188.153 1.762v3.907c0 1.034-.153 2.337-.997 3.103-.845.766-2.226.92-3.34.92h-6.14c-.346 0-.845-.04-1.075-.307-.23-.268-.269-.69-.269-.996v-1.494h6.333c.384 0 1.19-.038 1.42-.383.269-.383.307-1.15.307-1.609v-2.107c0-.46-.038-1.187-.307-1.608-.23-.345-1.036-.384-1.42-.384h-2.418l.077-.038zM124.836 30.034v1.494c0 .306-.038.766-.23.996-.23.268-.73.306-1.113.306h-6.41c-1.112 0-2.494-.153-3.339-.919-.844-.766-.997-2.068-.997-3.103V16.206c0-1.034.153-2.336.997-3.102.845-.766 2.188-.92 3.34-.92h4.682c1.113 0 2.495.154 3.34.92.843.766.997 2.068.997 3.102v4.444c0 1.034-.154 2.336-.998 3.102s-2.188.92-3.339.92h-2.533c-.346 0-.844-.039-1.075-.307-.23-.268-.23-.69-.23-.996v-1.494h2.725c.384 0 1.19-.038 1.42-.383.269-.421.307-1.149.307-1.608v-3.026c0-.422-.038-1.15-.345-1.494-.307-.307-1.152-.345-1.536-.345h-1.842c-.384 0-1.305.038-1.573.345-.307.344-.346 1.225-.346 1.647v10.993c0 .46.039 1.226.307 1.609.23.345 1.036.383 1.42.383h6.41l-.039.038zM97.276 7.555v25.434h-3.953V6.099c0-.345.038-.766.307-1.034s.73-.307 1.113-.307h9.02c1.113 0 2.494.154 3.339.92.844.766.998 2.03.998 3.064v20.186c0 1.035-.154 2.337-.998 3.103-.806.766-2.188.92-3.34.92h-3.991c-.345 0-.844-.039-1.075-.307-.23-.268-.268-.69-.268-.996v-1.494h3.953c.384 0 1.19-.038 1.42-.383.269-.383.307-1.15.307-1.609V9.546c0-.46-.038-1.225-.307-1.608-.23-.345-1.036-.383-1.42-.383h-5.143.038zM166.801 54.486c-.422 0-.806-.039-1.228-.077h-.269v-2.298h.27c.421-.039.843-.039 1.266-.077 0-.728-.039-1.417 0-2.145.038-.345.192-.843.499-1.072.96-.575 1.995-1.073 3.032-1.61l.422-.19v5.017h1.957v2.375h-.268c-.538.038-1.113.077-1.69.077v18.922h-4.03V54.447l.04.039zM229.775 64.411c-.614 0-1.267-.038-1.88-.153-.5-.115-.922-.306-1.267-.651a2.225 2.225 0 0 1-.614-1.187 9.112 9.112 0 0 1-.154-1.762V56.75c0-1.035.154-2.337.998-3.103.845-.766 2.226-.92 3.34-.92h5.718c.345 0 .844.039 1.113.307.23.268.23.69.23.996v1.494h-5.91c-.384 0-1.19.038-1.42.383-.27.421-.307 1.149-.307 1.609v2.106c0 .383 0 .766.076 1.15.039.191.077.42.23.574.116.115.308.192.461.23.307.076.691.076.998.076h2.418c.614 0 1.305.039 1.88.154.461.115.922.306 1.229.65.345.346.537.767.614 1.188.115.575.153 1.188.153 1.762v3.907c0 1.035-.153 2.337-.997 3.103-.806.766-2.227.92-3.34.92h-6.14c-.346 0-.845-.04-1.075-.307-.23-.268-.269-.69-.269-.996V70.54h6.333c.384 0 1.19-.038 1.42-.383.269-.421.307-1.15.307-1.609v-2.107c0-.46-.038-1.187-.307-1.608-.23-.345-1.036-.383-1.42-.383h-2.418v-.039zM216.064 64.411c-.614 0-1.266-.038-1.88-.153-.5-.115-.921-.306-1.267-.651a2.225 2.225 0 0 1-.614-1.187 9.112 9.112 0 0 1-.154-1.762V56.75c0-1.035.154-2.337.998-3.103.845-.766 2.226-.92 3.34-.92h5.718c.346 0 .845.039 1.075.307.23.268.268.69.268.996v1.494h-5.91c-.384 0-1.19.038-1.42.383-.269.421-.307 1.149-.307 1.609v2.106c0 .383.038.766.077 1.15.038.191.076.42.191.574.116.115.307.192.461.23.307.076.652.076.998.076h2.418c.614 0 1.266.039 1.88.154.5.115.922.306 1.267.65.307.346.499.767.614 1.188.115.575.154 1.188.154 1.762v3.907c0 1.035-.154 2.337-.998 3.103-.845.766-2.226.92-3.34.92h-6.14c-.346 0-.845-.04-1.075-.307-.23-.268-.269-.69-.269-.996V70.54h6.333c.384 0 1.19-.038 1.42-.383.269-.383.307-1.15.307-1.609v-2.107c0-.46-.038-1.187-.307-1.608-.23-.345-1.036-.383-1.42-.383h-2.456l.038-.039zM208.243 70.578v1.494c0 .307-.038.766-.268.996-.23.268-.73.307-1.075.307h-6.448c-1.113 0-2.494-.154-3.3-.92-.845-.766-.998-2.068-.998-3.102V56.75c0-1.035.153-2.337.998-3.103.806-.766 2.187-.92 3.3-.92h4.683c1.113 0 2.494.154 3.3.92.845.766.998 2.068.998 3.103v4.443c0 1.034-.153 2.336-.998 3.102-.844.767-2.187.92-3.3.92h-2.572c-.345 0-.844-.039-1.074-.307-.23-.268-.27-.69-.27-1.034v-1.494h2.764c.384 0 1.19-.038 1.42-.383.269-.421.307-1.149.307-1.609v-3.026c0-.383-.038-1.187-.345-1.493-.307-.307-1.151-.345-1.535-.345h-1.843c-.383 0-1.304.038-1.573.345-.307.344-.307 1.225-.307 1.647V68.51c0 .46.038 1.226.307 1.609.23.344 1.036.383 1.42.383h6.41v.076zM145.264 48.099v9.384h6.87v1.494c0 .307-.038.766-.269.996-.23.268-.729.307-1.074.307h-5.527v11.912c0 .345-.039.766-.307 1.034-.269.268-.73.307-1.113.307h-2.533v-26.89c0-.345.038-.766.307-1.034.268-.268.729-.306 1.113-.306h10.67v1.493c0 .307-.039.767-.27.996-.23.268-.728.307-1.074.307h-6.793zM123.022 54.108c.192-.307.422-.613.691-.843.537-.422 1.305-.536 1.996-.536h1.65c.346 0 .845.038 1.075.306.23.268.269.69.269.996v1.494h-5.72v16.509c0 .345-.037.766-.306 1.034s-.768.307-1.113.307h-2.533V54.069c0-.345.038-.766.307-1.034.268-.268.767-.306 1.113-.306h2.533v1.379h.038zM181.255 53.763a1.5 1.5 0 0 1 .307-.383c.499-.537 1.266-.651 1.957-.651h4.03c1.113 0 2.495.153 3.339.919.844.766.998 2.068.998 3.103v15.283c0 .345-.038.766-.307 1.034s-.73.307-1.113.307h-2.533v-15.82c0-.46-.039-1.188-.307-1.609-.23-.345-1.037-.383-1.42-.383h-4.951v16.51c0 .344-.039.765-.307 1.033-.27.269-.73.307-1.114.307h-2.533V54.108c0-.345.039-.767.307-1.035.27-.268.73-.306 1.113-.306h2.534v1.072-.076zM179.502 13.257c.077-.153.192-.268.307-.421.5-.537 1.267-.652 1.996-.652h4.03c1.113 0 2.495.154 3.34.92.844.766.997 2.068.997 3.102V31.49c0 .344-.038.766-.307 1.034s-.73.306-1.113.306h-2.533V17.01c0-.459-.038-1.187-.307-1.608-.23-.345-1.036-.383-1.42-.383h-4.951v16.509c0 .345-.039.766-.307 1.034-.269.268-.768.307-1.113.307h-2.533V13.563c0-.344.038-.766.307-1.034.268-.268.729-.306 1.113-.306h2.533v1.072l-.039-.038zM166.262 13.295c0-.268.077-.574.307-.766.27-.268.73-.306 1.114-.306h2.533v24.553c0 1.034-.154 2.336-.998 3.102-.806.766-2.226.92-3.34.92h-8.942c-.345 0-.844-.039-1.075-.307-.23-.268-.268-.69-.268-.996v-1.494h8.904c.307 0 .652 0 .998-.076a.876.876 0 0 0 .46-.23c.116-.153.192-.345.23-.536.077-.383.077-.766.077-1.15V15.058h-4.95c-.423 0-1.19.039-1.42.383-.27.422-.308 1.15-.308 1.609v10.993c0 .46.039 1.226.307 1.61.23.344 1.037.382 1.42.382h3.8v1.494c0 .306-.038.766-.269.996-.23.268-.729.306-1.074.306h-3.838c-1.113 0-2.495-.153-3.301-.919-.844-.766-.998-2.068-.998-3.103V16.206c0-1.034.154-2.336.998-3.102.806-.766 2.226-.92 3.3-.92h4.069c.69 0 1.458.154 1.996.652a1.7 1.7 0 0 1 .307.42l-.039.04zM225.066 15.177h-4.951c-.384 0-1.19.038-1.42.383-.269.422-.307 1.15-.307 1.609v10.993c0 .46.038 1.188.307 1.609.23.345 1.036.383 1.42.383h3.8v1.494c0 .306-.039.766-.27.996-.23.268-.728.306-1.074.306h-3.838c-1.113 0-2.494-.153-3.3-.919-.845-.766-.998-2.03-.998-3.103V16.365c0-1.035.153-2.337.998-3.103.844-.766 2.187-.92 3.3-.92h4.03c.73 0 1.497.154 1.958.652a1.7 1.7 0 0 1 .307.421V6.1c0-.345.038-.766.307-1.034.268-.268.729-.307 1.113-.307h2.533v26.89c0 .345-.039.766-.307 1.034-.269.268-.73.307-1.113.307h-2.533V15.177h.038z"/>
        <path d="M185.447 49.426l-4.59 4.003-4.59-4.003-1.41 1.232 6 5.243 6-5.243zM.939 36.382c0-9.998 4.068-19.038 10.631-25.588C18.133 4.244 27.191.184 37.208.184c10.018 0 19.075 4.06 25.638 10.61 6.563 6.55 10.632 15.59 10.632 25.588 0 9.997-4.069 19.037-10.632 25.587-6.563 6.55-15.62 10.61-25.638 10.61-10.017 0-19.075-4.06-25.638-10.61C5.007 55.419.94 46.379.94 36.382zm13.356-22.868c-5.872 5.86-9.48 13.943-9.48 22.868 0 8.925 3.608 17.007 9.48 22.867 5.872 5.86 13.97 9.461 22.875 9.461 8.943 0 17.04-3.6 22.913-9.46 5.872-5.861 9.48-13.943 9.48-22.868 0-8.925-3.646-17.007-9.48-22.868A32.315 32.315 0 0 0 37.17 4.053c-8.943 0-17.041 3.6-22.875 9.461z"/>
        <path d="M30.988 57.24c-9.058-2.797-15.66-11.262-15.66-21.221 0-9.96 6.602-18.425 15.66-21.22v42.44zm0-46.655c-11.36 2.91-19.766 13.215-19.766 25.472 0 12.219 8.405 22.561 19.766 25.472 1.343.345 2.686.575 4.106.69V9.895a24.85 24.85 0 0 0-4.106.69zM43.893 10.585a24.192 24.192 0 0 0-4.107-.69v52.362a24.85 24.85 0 0 0 4.107-.69v-23.71h7.944v-4.06h-7.944V14.913c2.993.881 8.367 3.6 12.742 10.189h4.606c-1.42-3.37-6.679-11.76-17.348-14.44v-.077zM105.287 55.525c-.422 0-1.19.038-1.42.383-.268.421-.307 1.149-.307 1.609V68.51c0 .46.039 1.226.307 1.609.23.344 1.037.383 1.42.383h3.224c.384 0 1.19-.039 1.42-.383.27-.383.308-1.15.308-1.61V57.518c0-.46-.039-1.188-.308-1.61-.23-.344-1.036-.382-1.42-.382h-3.224zm-5.68 1.226c0-1.035.154-2.337.998-3.103.806-.766 2.188-.92 3.3-.92h5.95c1.113 0 2.494.154 3.339.92.844.766.998 2.068.998 3.103v12.602c0 1.034-.154 2.336-.998 3.102-.845.766-2.226.92-3.34.92h-5.948c-1.113 0-2.495-.154-3.301-.92-.844-.766-.998-2.068-.998-3.102V56.75zM90.992 52.724h3.915c.345 0 .844.038 1.075.306.23.268.268.69.268.996v1.494h-5.258v16.51c0 .344-.038.765-.307 1.033-.269.268-.73.307-1.113.307H87.04V49.162c0-1.035.153-2.337.998-3.065.844-.766 2.226-.92 3.339-.92h5.105c.345 0 .844.04 1.074.307.23.268.269.69.269 1.035v1.493h-5.105c-.307 0-.652 0-.998.077-.153.038-.345.115-.46.23-.115.153-.192.383-.23.536-.039.383-.039.766-.039 1.15V52.8v-.076zM207.672 30.034v1.494c0 .306-.038.766-.268.996-.23.268-.73.306-1.075.306h-6.448c-1.113 0-2.495-.153-3.3-.919-.845-.766-.999-2.068-.999-3.103V16.206c0-1.034.154-2.336.998-3.102.806-.766 2.188-.92 3.301-.92h4.682c1.113 0 2.495.154 3.301.92.844.766.998 2.068.998 3.102v4.444c0 1.034-.154 2.336-.998 3.102s-2.188.92-3.3.92h-2.572c-.346 0-.844-.039-1.075-.307-.23-.268-.268-.69-.268-1.034v-1.494h2.763c.384 0 1.19-.038 1.42-.383.269-.421.307-1.15.307-1.609V16.82c0-.383-.038-1.187-.345-1.494-.307-.306-1.113-.344-1.536-.344h-1.842c-.384 0-1.305.038-1.573.344-.307.345-.307 1.226-.307 1.647v10.994c0 .46.038 1.225.307 1.609.23.344 1.036.383 1.42.383h6.41v.076zM150.405 7.082v24.59c0 .346-.038.767-.307 1.035-.268.268-.729.307-1.113.307h-2.533v-20.8l3.263-1.149-3.263-.574V8.384c0-.345.039-.766.307-1.034.269-.23.73-.307 1.113-.307h2.533v.039zM159.546 47.626v24.591c0 .345-.039.766-.307 1.034-.269.268-.73.307-1.113.307h-2.533v-20.8l3.224-1.149-3.224-.574v-2.107c0-.345.038-.766.307-1.034.268-.23.729-.307 1.113-.307h2.533v.039zM134.448 23.867c-.614 0-1.267-.038-1.88-.153-.461-.115-.922-.306-1.267-.651-.346-.345-.5-.766-.614-1.188a9.112 9.112 0 0 1-.154-1.762v-3.907c0-1.034.154-2.336.998-3.102.806-.766 2.226-.92 3.34-.92h5.68c.345 0 .844.039 1.074.307.23.268.269.69.269.996v1.494h-5.91c-.385 0-1.19.038-1.421.383-.269.421-.307 1.149-.307 1.608v2.107c0 .383 0 .766.077 1.15.038.19.077.42.192.574.115.115.307.191.46.23.307.076.653.076.998.076h2.418c.614 0 1.267.039 1.88.153.461.115.922.307 1.229.652.345.344.537.766.614 1.187.115.575.153 1.188.153 1.762v3.907c0 1.034-.153 2.337-.997 3.103-.845.766-2.226.92-3.34.92h-6.14c-.346 0-.845-.04-1.075-.307-.23-.268-.269-.69-.269-.996v-1.494h6.333c.384 0 1.19-.038 1.42-.383.269-.383.307-1.15.307-1.609v-2.107c0-.46-.038-1.187-.307-1.608-.23-.345-1.036-.384-1.42-.384h-2.418l.077-.038zM124.836 30.034v1.494c0 .306-.038.766-.23.996-.23.268-.73.306-1.113.306h-6.41c-1.112 0-2.494-.153-3.339-.919-.844-.766-.997-2.068-.997-3.103V16.206c0-1.034.153-2.336.997-3.102.845-.766 2.188-.92 3.34-.92h4.682c1.113 0 2.495.154 3.34.92.843.766.997 2.068.997 3.102v4.444c0 1.034-.154 2.336-.998 3.102s-2.188.92-3.339.92h-2.533c-.346 0-.844-.039-1.075-.307-.23-.268-.23-.69-.23-.996v-1.494h2.725c.384 0 1.19-.038 1.42-.383.269-.421.307-1.149.307-1.608v-3.026c0-.422-.038-1.15-.345-1.494-.307-.307-1.152-.345-1.536-.345h-1.842c-.384 0-1.305.038-1.573.345-.307.344-.346 1.225-.346 1.647v10.993c0 .46.039 1.226.307 1.609.23.345 1.036.383 1.42.383h6.41l-.039.038zM97.276 7.555v25.434h-3.953V6.099c0-.345.038-.766.307-1.034s.73-.307 1.113-.307h9.02c1.113 0 2.494.154 3.339.92.844.766.998 2.03.998 3.064v20.186c0 1.035-.154 2.337-.998 3.103-.806.766-2.188.92-3.34.92h-3.991c-.345 0-.844-.039-1.075-.307-.23-.268-.268-.69-.268-.996v-1.494h3.953c.384 0 1.19-.038 1.42-.383.269-.383.307-1.15.307-1.609V9.546c0-.46-.038-1.225-.307-1.608-.23-.345-1.036-.383-1.42-.383h-5.143.038zM166.801 54.486c-.422 0-.806-.039-1.228-.077h-.269v-2.298h.27c.421-.039.843-.039 1.266-.077 0-.728-.039-1.417 0-2.145.038-.345.192-.843.499-1.072.96-.575 1.995-1.073 3.032-1.61l.422-.19v5.017h1.957v2.375h-.268c-.538.038-1.113.077-1.69.077v18.922h-4.03V54.447l.04.039zM229.775 64.411c-.614 0-1.267-.038-1.88-.153-.5-.115-.922-.306-1.267-.651a2.225 2.225 0 0 1-.614-1.187 9.112 9.112 0 0 1-.154-1.762V56.75c0-1.035.154-2.337.998-3.103.845-.766 2.226-.92 3.34-.92h5.718c.345 0 .844.039 1.113.307.23.268.23.69.23.996v1.494h-5.91c-.384 0-1.19.038-1.42.383-.27.421-.307 1.149-.307 1.609v2.106c0 .383 0 .766.076 1.15.039.191.077.42.23.574.116.115.308.192.461.23.307.076.691.076.998.076h2.418c.614 0 1.305.039 1.88.154.461.115.922.306 1.229.65.345.346.537.767.614 1.188.115.575.153 1.188.153 1.762v3.907c0 1.035-.153 2.337-.997 3.103-.806.766-2.227.92-3.34.92h-6.14c-.346 0-.845-.04-1.075-.307-.23-.268-.269-.69-.269-.996V70.54h6.333c.384 0 1.19-.038 1.42-.383.269-.421.307-1.15.307-1.609v-2.107c0-.46-.038-1.187-.307-1.608-.23-.345-1.036-.383-1.42-.383h-2.418v-.039zM216.064 64.411c-.614 0-1.266-.038-1.88-.153-.5-.115-.921-.306-1.267-.651a2.225 2.225 0 0 1-.614-1.187 9.112 9.112 0 0 1-.154-1.762V56.75c0-1.035.154-2.337.998-3.103.845-.766 2.226-.92 3.34-.92h5.718c.346 0 .845.039 1.075.307.23.268.268.69.268.996v1.494h-5.91c-.384 0-1.19.038-1.42.383-.269.421-.307 1.149-.307 1.609v2.106c0 .383.038.766.077 1.15.038.191.076.42.191.574.116.115.307.192.461.23.307.076.652.076.998.076h2.418c.614 0 1.266.039 1.88.154.5.115.922.306 1.267.65.307.346.499.767.614 1.188.115.575.154 1.188.154 1.762v3.907c0 1.035-.154 2.337-.998 3.103-.845.766-2.226.92-3.34.92h-6.14c-.346 0-.845-.04-1.075-.307-.23-.268-.269-.69-.269-.996V70.54h6.333c.384 0 1.19-.038 1.42-.383.269-.383.307-1.15.307-1.609v-2.107c0-.46-.038-1.187-.307-1.608-.23-.345-1.036-.383-1.42-.383h-2.456l.038-.039zM208.243 70.578v1.494c0 .307-.038.766-.268.996-.23.268-.73.307-1.075.307h-6.448c-1.113 0-2.494-.154-3.3-.92-.845-.766-.998-2.068-.998-3.102V56.75c0-1.035.153-2.337.998-3.103.806-.766 2.187-.92 3.3-.92h4.683c1.113 0 2.494.154 3.3.92.845.766.998 2.068.998 3.103v4.443c0 1.034-.153 2.336-.998 3.102-.844.767-2.187.92-3.3.92h-2.572c-.345 0-.844-.039-1.074-.307-.23-.268-.27-.69-.27-1.034v-1.494h2.764c.384 0 1.19-.038 1.42-.383.269-.421.307-1.149.307-1.609v-3.026c0-.383-.038-1.187-.345-1.493-.307-.307-1.151-.345-1.535-.345h-1.843c-.383 0-1.304.038-1.573.345-.307.344-.307 1.225-.307 1.647V68.51c0 .46.038 1.226.307 1.609.23.344 1.036.383 1.42.383h6.41v.076zM145.264 48.099v9.384h6.87v1.494c0 .307-.038.766-.269.996-.23.268-.729.307-1.074.307h-5.527v11.912c0 .345-.039.766-.307 1.034-.269.268-.73.307-1.113.307h-2.533v-26.89c0-.345.038-.766.307-1.034.268-.268.729-.306 1.113-.306h10.67v1.493c0 .307-.039.767-.27.996-.23.268-.728.307-1.074.307h-6.793zM123.022 54.108c.192-.307.422-.613.691-.843.537-.422 1.305-.536 1.996-.536h1.65c.346 0 .845.038 1.075.306.23.268.269.69.269.996v1.494h-5.72v16.509c0 .345-.037.766-.306 1.034s-.768.307-1.113.307h-2.533V54.069c0-.345.038-.766.307-1.034.268-.268.767-.306 1.113-.306h2.533v1.379h.038zM181.255 53.763a1.5 1.5 0 0 1 .307-.383c.499-.537 1.266-.651 1.957-.651h4.03c1.113 0 2.495.153 3.339.919.844.766.998 2.068.998 3.103v15.283c0 .345-.038.766-.307 1.034s-.73.307-1.113.307h-2.533v-15.82c0-.46-.039-1.188-.307-1.609-.23-.345-1.037-.383-1.42-.383h-4.951v16.51c0 .344-.039.765-.307 1.033-.27.269-.73.307-1.114.307h-2.533V54.108c0-.345.039-.767.307-1.035.27-.268.73-.306 1.113-.306h2.534v1.072-.076zM179.502 13.257c.077-.153.192-.268.307-.421.5-.537 1.267-.652 1.996-.652h4.03c1.113 0 2.495.154 3.34.92.844.766.997 2.068.997 3.102V31.49c0 .344-.038.766-.307 1.034s-.73.306-1.113.306h-2.533V17.01c0-.459-.038-1.187-.307-1.608-.23-.345-1.036-.383-1.42-.383h-4.951v16.509c0 .345-.039.766-.307 1.034-.269.268-.768.307-1.113.307h-2.533V13.563c0-.344.038-.766.307-1.034.268-.268.729-.306 1.113-.306h2.533v1.072l-.039-.038zM166.262 13.295c0-.268.077-.574.307-.766.27-.268.73-.306 1.114-.306h2.533v24.553c0 1.034-.154 2.336-.998 3.102-.806.766-2.226.92-3.34.92h-8.942c-.345 0-.844-.039-1.075-.307-.23-.268-.268-.69-.268-.996v-1.494h8.904c.307 0 .652 0 .998-.076a.876.876 0 0 0 .46-.23c.116-.153.192-.345.23-.536.077-.383.077-.766.077-1.15V15.058h-4.95c-.423 0-1.19.039-1.42.383-.27.422-.308 1.15-.308 1.609v10.993c0 .46.039 1.226.307 1.61.23.344 1.037.382 1.42.382h3.8v1.494c0 .306-.038.766-.269.996-.23.268-.729.306-1.074.306h-3.838c-1.113 0-2.495-.153-3.301-.919-.844-.766-.998-2.068-.998-3.103V16.206c0-1.034.154-2.336.998-3.102.806-.766 2.226-.92 3.3-.92h4.069c.69 0 1.458.154 1.996.652a1.7 1.7 0 0 1 .307.42l-.039.04zM225.066 15.177h-4.951c-.384 0-1.19.038-1.42.383-.269.422-.307 1.15-.307 1.609v10.993c0 .46.038 1.188.307 1.609.23.345 1.036.383 1.42.383h3.8v1.494c0 .306-.039.766-.27.996-.23.268-.728.306-1.074.306h-3.838c-1.113 0-2.494-.153-3.3-.919-.845-.766-.998-2.03-.998-3.103V16.365c0-1.035.153-2.337.998-3.103.844-.766 2.187-.92 3.3-.92h4.03c.73 0 1.497.154 1.958.652a1.7 1.7 0 0 1 .307.421V6.1c0-.345.038-.766.307-1.034.268-.268.729-.307 1.113-.307h2.533v26.89c0 .345-.039.766-.307 1.034-.269.268-.73.307-1.113.307h-2.533V15.177h.038z"/>
    </g>
</svg>
