<svg id="Layer_1" data-name="Layer 1" xmlns="http://www.w3.org/2000/svg" xmlns:xlink="http://www.w3.org/1999/xlink" viewBox="0 0 456.26 456.24"><defs><style>.cls-1{fill:none;}.cls-2{clip-path:url(#clip-path);}.cls-3{fill:white;}</style><clipPath id="clip-path" transform="translate(-4.89 -4.89)"><rect class="cls-1" x="4.89" y="4.89" width="456.28" height="456.28"/></clipPath></defs><title>instagram</title><g class="cls-2"><path class="cls-3" d="M233,46c60.92,0,68.13.23,92.19,1.33,22.24,1,34.32,4.73,42.36,7.86a70.69,70.69,0,0,1,26.23,17.07,70.66,70.66,0,0,1,17.07,26.23c3.12,8,6.84,20.12,7.86,42.36,1.1,24.06,1.33,31.27,1.33,92.19s-.23,68.13-1.33,92.19c-1,22.24-4.73,34.32-7.86,42.36a75.55,75.55,0,0,1-43.3,43.3c-8,3.12-20.12,6.84-42.36,7.85-24,1.1-31.27,1.33-92.19,1.33s-68.13-.23-92.19-1.33c-22.24-1-34.32-4.73-42.36-7.85a70.69,70.69,0,0,1-26.23-17.07,70.72,70.72,0,0,1-17.07-26.23c-3.12-8-6.84-20.12-7.86-42.36C46.23,301.16,46,294,46,233s.23-68.13,1.33-92.19c1-22.24,4.73-34.32,7.86-42.36a70.7,70.7,0,0,1,17.06-26.2A70.69,70.69,0,0,1,98.48,55.18c8-3.12,20.12-6.84,42.36-7.86C164.9,46.23,172.11,46,233,46m0-41.11c-62,0-69.73.26-94.06,1.37s-40.87,5-55.38,10.6A111.81,111.81,0,0,0,43.18,43.18,111.83,111.83,0,0,0,16.87,83.59C11.23,98.1,7.37,114.68,6.26,139s-1.37,32.07-1.37,94,.26,69.73,1.37,94.06,5,40.87,10.6,55.38a111.82,111.82,0,0,0,26.31,40.41,111.81,111.81,0,0,0,40.41,26.31c14.51,5.64,31.09,9.5,55.38,10.6s32.1,1.37,94.06,1.37,69.73-.26,94.06-1.37,40.87-5,55.38-10.6a116.65,116.65,0,0,0,66.72-66.72c5.64-14.51,9.5-31.1,10.6-55.38s1.37-32.1,1.37-94.06-.26-69.73-1.37-94.06-5-40.87-10.6-55.38a111.83,111.83,0,0,0-26.31-40.41,111.81,111.81,0,0,0-40.41-26.31C368,11.2,351.37,7.34,327.08,6.24S295,4.89,233,4.89" transform="translate(-4.89 -4.89)"/><path class="cls-3" d="M233,115.88A117.15,117.15,0,1,0,350.18,233h0A117.15,117.15,0,0,0,233,115.88m0,193.2a76,76,0,1,1,76-76,76,76,0,0,1-76,76" transform="translate(-4.89 -4.89)"/><path class="cls-3" d="M382.19,111.25a27.38,27.38,0,1,1-27.38-27.38,27.38,27.38,0,0,1,27.38,27.38h0" transform="translate(-4.89 -4.89)"/></g></svg>
